<?xml version="1.0" encoding="utf-8" ?><svg xmlns="http://www.w3.org/2000/svg" xmlns:xlink="http://www.w3.org/1999/xlink" width="1472" height="1462" viewBox="0 0 1472 1462"><path fill="#014B4A" d="M1469.15 1011.04C1469.72 1014.06 1469.34 1017.88 1469.5 1021.02C1469.93 1029.76 1468.9 1039.29 1469.38 1047.93C1476.9 1181.56 1413.43 1314.38 1303.25 1390.77C1291.76 1398.74 1278.47 1406.58 1266.04 1413.04C1260.38 1415.99 1255.04 1420.19 1249.18 1422.86C1203.73 1443.36 1153.79 1456.71 1103.84 1458.59C1096.04 1458.89 1087.65 1461.07 1079.66 1461.1C1036.07 1461.27 992.476 1461.14 948.884 1461.12L686.627 1461.16L495.901 1461.21L416.689 1461.21C406.056 1461.22 383.568 1461.91 374.113 1461.02C350.467 1458.18 323.39 1456.12 300.545 1449.85C240.202 1433.28 181.182 1403.29 134.89 1360.92C130.654 1357.04 125.865 1354.05 121.457 1349.86C67.4797 1298.3 29.4337 1232.33 11.8368 1159.79C7.27105 1140.79 4.35147 1121.92 4.19775 1102.44C4.14441 1095.68 2.02547 1088.1 2.26386 1081.23C2.85786 1064.12 2.93971 1047.2 2.86423 1030.09L2.82476 902.316L2.78894 588.649C3.34769 528.834 3.20126 469.015 2.34966 409.204C-2.66909 183.362 183.06 5.19875 396.953 1.94753C407.322 1.78991 417.032 0.820111 427.58 0.836188C467.749 0.897415 507.916 0.839686 548.083 0.844484L802.713 0.871551L1001.31 0.840433C1032.8 0.837015 1064.78 -0.147362 1096.15 2.55401C1104.62 3.28332 1114.1 1.88926 1122.63 3.24663C1158.27 8.92408 1195.43 15.7594 1228.5 30.6314C1358.08 82.7098 1446.24 206.17 1466.52 342.679C1470.01 366.175 1469.48 388.639 1469.48 412.231L1469.49 495.073L1468.47 746.903C1468.47 755.306 1470.97 761.876 1470.7 769.576C1469.8 794.675 1468.3 818.421 1468.62 843.69C1466.29 852.992 1466.9 1006.31 1469.15 1011.04ZM801.704 1010.74C761.128 1023.5 699.837 1023.29 658.155 1013.45C599.33 998.334 544.614 969.407 503.576 924.027C501.755 922.013 500.584 918.569 499.099 917.099C464.365 882.738 441.193 832.515 430.383 785.077C424.487 762.532 425.769 747.225 424.703 726.916C420.739 651.437 445.973 576.975 495.153 519.577C506.534 506.295 516.144 493.505 531.385 483.286C595.622 429.207 686.213 400.023 769.828 411.65C788.38 416.282 810.717 419.036 828.619 425.546C851.292 433.791 874.568 444.67 894.391 458.172C908.464 467.757 916.385 472.63 928.698 484.875C939.375 495.493 950.291 501.278 958.484 515.608C975.439 533.716 989.444 556.262 999.821 578.67C1010.41 601.541 1020.71 624.474 1024.32 649.553C1030.44 680.094 1033.76 707.752 1030.72 738.981C1028.49 765.084 1019.71 806.956 1008.28 831.001C1014.85 838.669 1020.63 845.319 1027.65 852.691C1034.53 859.931 1039.68 867.629 1048.12 873.879C1050.19 875.692 1052.43 881.504 1054.55 883.758C1068.36 898.434 1083.36 911.091 1094.51 928.037C1097.28 932.234 1106.32 938.032 1109.83 942.159C1113.54 945.825 1118.37 952.097 1121.42 956.443C1125.3 949.069 1129.01 941.698 1132.83 934.301C1136 928.148 1140.34 921.514 1143.17 915.261C1192.5 807.374 1200.31 685.087 1165.12 571.798C1126.95 452.436 1043.32 352.903 932.321 294.733C926.77 291.847 920.499 289.678 914.765 287.101C849.818 257.596 778.752 244.07 707.508 247.655C678.216 248.173 652.558 253.176 624.461 260.448C536.982 282.821 457.406 328.981 394.553 393.81C307.52 485.187 260.35 607.397 263.421 733.554C263.564 739.127 264.571 745.755 264.946 751.505C267.898 800.834 279.069 849.323 298 894.97C303.873 908.763 312.672 922.596 318.175 936.967C320.555 943.183 327.169 951.015 330.296 957.19C345.351 983.306 363.577 1006.63 384.177 1028.52C395.22 1040.26 403.721 1051.57 417.44 1061.21C420.612 1064.36 422.925 1068.2 426.327 1071.13C474.931 1113 528.116 1145.12 589.9 1163.31C620.521 1172.33 646.92 1177.65 679.024 1178.51C696.465 1178.98 714.788 1182.23 732.407 1181.27C787.816 1179.87 841.715 1173.68 892.888 1151.05C898.985 1148.36 916.462 1142.97 917.128 1136C915.515 1130.01 901.398 1120.48 895.339 1113.83L822.289 1034.66C813.306 1024.9 813.887 1021.17 801.704 1010.74Z"/><path fill="#23A74B" d="M744.205 816.154C776.963 815.526 810.752 815.933 843.58 815.91C861.072 815.897 886.672 815.118 903.061 816.397C912.948 826.432 926.659 842.811 936.545 853.674L1007.25 930.478C1079.14 1007.5 1150.49 1085.02 1221.31 1163.03L1205.16 1162.98C1152.74 1162.96 1096.3 1164.09 1044.27 1162.91C1035.4 1154.53 1018.86 1135.24 1010.09 1125.56L938.474 1046.3L728.179 816.236C733.217 816.459 739.092 816.233 744.205 816.154Z"/><path fill="#00423F" fill-opacity="0.96078432" d="M1468.62 843.69C1468.9 855.154 1470.83 866.988 1470.61 877.693C1470.08 902.809 1468.1 926.963 1468.48 952.279C1468.75 970.247 1470.74 993.285 1469.15 1011.04C1466.9 1006.31 1466.29 852.992 1468.62 843.69Z"/></svg>