<?xml version="1.0" encoding="utf-8" ?><svg xmlns="http://www.w3.org/2000/svg" xmlns:xlink="http://www.w3.org/1999/xlink" width="2896" height="2172" viewBox="0 0 2896 2172"><path fill="#045049" d="M2118.37 855.11C2160.84 852.718 2218.24 855.131 2262.7 854.468C2301.64 855.596 2345.71 852.243 2383.85 856.159C2444.58 862.396 2486.87 912.808 2499.15 953.949C2506.61 978.92 2505.53 1001.39 2505.51 1025.84L2505.39 1102.73L2505.51 1184.4C2505.56 1233.74 2506.98 1278.57 2464.82 1320.55C2439.74 1345.53 2415.74 1356.5 2374.61 1361.02L2204.54 1361.36C2174.4 1361.36 2135.34 1362.77 2106.57 1359.43C2041.31 1351.86 1998.81 1297.44 1990.3 1252.09C1986.36 1231.07 1986.96 1210.86 1986.98 1189.47L1987 1113.11L1986.92 1029.39C1986.91 1008.11 1985.47 985.696 1990.46 964.759C2003.1 911.817 2043.39 863.61 2118.37 855.11ZM2309.67 1250.27C2295.88 1235.6 2281.99 1220.99 2267.99 1206.43C2250.72 1209.07 2235.43 1211.06 2218.02 1206.81C2172.34 1195.66 2146.91 1161.65 2138.23 1128.19C2137.41 1125.01 2136.73 1121.81 2136.16 1118.6C2133.39 1086.2 2141.14 1045.34 2172.46 1022.02C2262.47 954.998 2346.56 1028.94 2348.24 1099.81C2348.45 1114.39 2345.91 1128.92 2340.7 1142.97C2353.58 1158.46 2368.23 1171.56 2381.4 1186.37C2409.96 1135.02 2414.07 1077.18 2385.61 1025.01C2359.52 977.208 2308.29 937.991 2235.41 939.018C2177.2 943.724 2137.01 970.29 2109.02 1007.8C2055.8 1079.13 2070.01 1190.33 2158.51 1243.04C2186.87 1260.03 2223.19 1267.68 2259.19 1264.26C2277.33 1262.62 2294.26 1257.55 2309.67 1250.27Z"/><path fill="#29A84F" d="M2241.6 1138.03C2262.07 1137.89 2282.54 1137.83 2303.02 1137.87C2338.31 1176.9 2383.12 1219.87 2415.91 1258.56C2401.69 1259.92 2369.53 1259.03 2353.75 1258.84C2347.86 1253.37 2342.02 1247.06 2336.8 1241.19C2306 1206.52 2271.96 1172.84 2241.6 1138.03Z"/><path fill="#045049" d="M613.969 852.976C660.694 851.446 698.243 856.47 737.493 876.678C866.398 943.048 897.768 1098.9 831.496 1199.24C813.098 1182 791.89 1157.95 774.239 1139.56C796.507 1076.78 786.36 1009.18 723.427 960.98C669.44 919.631 588.249 922.951 536.976 965.352C489.925 1004.26 478.879 1047.67 480.69 1098.6C487.821 1148.58 516.799 1202.81 580.905 1225.76C609.322 1236.19 642.143 1237.6 671.963 1229.67C689.579 1249.82 711.016 1271.68 729.662 1291.57C662.655 1323.42 579.837 1318.91 517.873 1282.89C376.272 1200.6 364.451 1022.99 469.138 919.295C506.426 882.362 553.027 859.401 613.969 852.976Z"/><path fill="#19212A" d="M1621.22 1005.72C1625.84 1005.48 1630.47 1005.35 1635.1 1005.34C1762.24 1005.69 1755.6 1092.57 1755.62 1162.54L1755.31 1271.42C1735.56 1271.71 1715.81 1271.74 1696.06 1271.5C1695.96 1260.92 1695.97 1250.34 1696.07 1239.76C1657.75 1287.67 1575.33 1286.2 1532.74 1243.04C1508.62 1211.96 1508.84 1166.05 1543.46 1139.33C1579.32 1111.64 1645.78 1117.91 1693.57 1118.03C1694.88 1066.47 1658.53 1045.35 1591.15 1061.35C1575.65 1065.03 1561 1074.82 1548.92 1082.73C1541.03 1071.13 1531.16 1052.42 1524.3 1040.05C1556.21 1017.55 1578.12 1010.16 1621.22 1005.72ZM1649.21 1227.49C1693.02 1215.71 1694.14 1187.75 1693.66 1158.72C1680.24 1158.75 1629.4 1158.11 1618.6 1159.52C1604.53 1161.1 1593.1 1163.77 1584.6 1172.89C1570.2 1188.31 1575.89 1214.38 1597.86 1224.21C1614.3 1231.57 1631.7 1230.8 1649.21 1227.49Z"/><path fill="#19212A" d="M919.025 1009.11C939.757 1008.91 959.188 1008.67 979.882 1009.45C981.815 1065.18 976.549 1122.15 982.888 1177.6C987.381 1216.91 1044.29 1234.62 1082.78 1208.39C1117.45 1184.76 1111.57 1133.33 1111.54 1101.33C1111.4 1070.68 1111.47 1040.03 1111.75 1009.37C1131.23 1008.5 1153.93 1008.91 1173.71 1008.96L1173.69 1098.99L1173.32 1271.36C1153.87 1271.71 1133.73 1271.45 1114.22 1271.37L1113.76 1236.3C1101.95 1251.47 1078.11 1270.33 1050.07 1272.88C906.967 1285.94 914.852 1171.38 917.786 1097.76C918.403 1082.27 914.353 1019.72 919.025 1009.11Z"/><path fill="#19212A" d="M1350.17 959.694C1349.9 956.222 1349.11 954.124 1351.75 951.376C1362.44 949.667 1400.6 950.693 1413.25 950.835C1413.28 962.562 1412.36 1001.36 1413.98 1010.65C1437.53 1011 1460.81 1010.43 1484.13 1010.72C1484.25 1018.7 1485.92 1056.19 1482.38 1060.38C1459.46 1060.17 1436.54 1060.15 1413.62 1060.32L1413.41 1150.07C1413.38 1166.01 1412.31 1182.82 1414.94 1198.63C1419.76 1227.67 1458.94 1230.07 1484.66 1212.73L1502.47 1255.91C1447.98 1293.93 1364.75 1271.74 1354.09 1217.22C1349.32 1197.46 1349.8 1176.99 1350.06 1156.88C1350.92 1091.27 1348.55 1025.27 1350.17 959.694Z"/><path fill="#111823" d="M1350.17 959.694C1349.9 956.222 1349.11 954.124 1351.75 951.376C1362.44 949.667 1400.6 950.693 1413.25 950.835C1413.28 962.562 1412.36 1001.36 1413.98 1010.65L1410.54 1010.23C1405.83 1003.34 1408.25 965.925 1408.13 955.815C1394.3 954.355 1373.32 954.311 1359.22 955.246C1354.86 955.536 1354.54 956.817 1352.64 959.03L1350.17 959.694Z"/><path fill="#111823" d="M1413.98 1010.65C1437.53 1011 1460.81 1010.43 1484.13 1010.72C1484.25 1018.7 1485.92 1056.19 1482.38 1060.38C1479.01 1049.54 1485.44 1033.08 1479.42 1016.64C1472.14 1016.62 1418.87 1014.39 1415.22 1013.47L1413.98 1010.65Z"/><path fill="#19212A" d="M1227.41 1008.74L1290.33 1009.02C1291.72 1042.52 1290.61 1080.41 1290.62 1114.3C1290.88 1166.72 1290.75 1219.13 1290.24 1271.55C1269.34 1271.77 1247.86 1271.58 1226.91 1271.58L1226.81 1095.52C1226.8 1073.71 1224.98 1028.38 1227.41 1008.74Z"/><path fill="#29A84F" d="M633.105 1132.92C662.308 1132.61 691.516 1132.61 720.719 1132.91C756.402 1173.65 798.151 1214.18 834.795 1254.67C848.944 1270.3 866.758 1287.37 879.588 1303.33C853.851 1304.09 818.655 1303.37 792.496 1303.05C784.635 1295.79 775.31 1285.48 768.363 1277.63C725.445 1229.14 674.688 1181.84 633.105 1132.92Z"/><path fill="#19212A" d="M1249.7 896.492C1304.85 891.873 1314.37 952.646 1266.14 966.077C1214.22 970.952 1203.14 911.17 1249.7 896.492Z"/></svg>